<svg xmlns="http://www.w3.org/2000/svg" viewBox="0 0 1500 500" width="1500" height="500">
  <defs>
    <linearGradient id="hbg" x1="0%" y1="0%" x2="100%" y2="100%">
      <stop offset="0%" style="stop-color:#0f1117"/>
      <stop offset="50%" style="stop-color:#131620"/>
      <stop offset="100%" style="stop-color:#1a1d27"/>
    </linearGradient>
  </defs>
  <!-- Background -->
  <rect width="1500" height="500" fill="url(#hbg)"/>
  <!-- Decorative grid pattern -->
  <g opacity="0.06">
    <line x1="0" y1="0" x2="0" y2="500" stroke="#22c55e" stroke-width="1" transform="translate(100,0)"/>
    <line x1="0" y1="0" x2="0" y2="500" stroke="#22c55e" stroke-width="1" transform="translate(200,0)"/>
    <line x1="0" y1="0" x2="0" y2="500" stroke="#22c55e" stroke-width="1" transform="translate(300,0)"/>
    <line x1="0" y1="0" x2="0" y2="500" stroke="#22c55e" stroke-width="1" transform="translate(1200,0)"/>
    <line x1="0" y1="0" x2="0" y2="500" stroke="#22c55e" stroke-width="1" transform="translate(1300,0)"/>
    <line x1="0" y1="0" x2="0" y2="500" stroke="#22c55e" stroke-width="1" transform="translate(1400,0)"/>
    <line x1="0" y1="0" x2="1500" y2="0" stroke="#22c55e" stroke-width="1" transform="translate(0,100)"/>
    <line x1="0" y1="0" x2="1500" y2="0" stroke="#22c55e" stroke-width="1" transform="translate(0,200)"/>
    <line x1="0" y1="0" x2="1500" y2="0" stroke="#22c55e" stroke-width="1" transform="translate(0,300)"/>
    <line x1="0" y1="0" x2="1500" y2="0" stroke="#22c55e" stroke-width="1" transform="translate(0,400)"/>
  </g>
  <!-- Terminal window (decorative, left side) -->
  <rect x="80" y="100" width="280" height="300" rx="10" fill="#0d0f14" stroke="#2d3148" stroke-width="1.5" opacity="0.6"/>
  <rect x="80" y="100" width="280" height="28" rx="10" fill="#1a1d27" opacity="0.6"/>
  <rect x="80" y="118" width="280" height="10" fill="#1a1d27" opacity="0.6"/>
  <circle cx="98" cy="114" r="4" fill="#ef4444" opacity="0.6"/>
  <circle cx="112" cy="114" r="4" fill="#f59e0b" opacity="0.6"/>
  <circle cx="126" cy="114" r="4" fill="#22c55e" opacity="0.6"/>
  <!-- Fake code lines in left terminal -->
  <rect x="100" y="145" width="120" height="2.5" rx="1" fill="#2d3148" opacity="0.5"/>
  <rect x="100" y="158" width="180" height="2.5" rx="1" fill="#2d3148" opacity="0.5"/>
  <rect x="100" y="171" width="90" height="2.5" rx="1" fill="#22c55e" opacity="0.3"/>
  <rect x="100" y="184" width="200" height="2.5" rx="1" fill="#2d3148" opacity="0.5"/>
  <rect x="100" y="197" width="140" height="2.5" rx="1" fill="#2d3148" opacity="0.5"/>
  <rect x="100" y="210" width="160" height="2.5" rx="1" fill="#22c55e" opacity="0.3"/>
  <rect x="100" y="223" width="100" height="2.5" rx="1" fill="#2d3148" opacity="0.5"/>
  <!-- Main brand text -->
  <text x="750" y="200" text-anchor="middle" font-family="'JetBrains Mono','Fira Code','SF Mono','Menlo','Consolas',monospace" font-size="72" font-weight="700">
    <tspan fill="#22c55e">$</tspan>
    <tspan fill="#e2e8f0" dx="12">selfhosting</tspan><tspan fill="#22c55e">.sh</tspan>
  </text>
  <!-- Tagline -->
  <text x="750" y="260" text-anchor="middle" font-family="'JetBrains Mono','Fira Code','SF Mono','Menlo','Consolas',monospace" font-size="24" fill="#94a3b8" font-weight="400">
    Replace your cloud subscriptions with stuff you run yourself
  </text>
  <!-- Subtle divider -->
  <rect x="550" y="285" width="400" height="1" fill="#2d3148"/>
  <!-- Sub-tagline -->
  <text x="750" y="320" text-anchor="middle" font-family="'JetBrains Mono','Fira Code','SF Mono','Menlo','Consolas',monospace" font-size="16" fill="#64748b">
    Docker guides &#x2022; comparisons &#x2022; hardware reviews &#x2022; self-hosting tips
  </text>
  <!-- Terminal window (decorative, right side) -->
  <rect x="1140" y="100" width="280" height="300" rx="10" fill="#0d0f14" stroke="#2d3148" stroke-width="1.5" opacity="0.6"/>
  <rect x="1140" y="100" width="280" height="28" rx="10" fill="#1a1d27" opacity="0.6"/>
  <rect x="1140" y="118" width="280" height="10" fill="#1a1d27" opacity="0.6"/>
  <circle cx="1158" cy="114" r="4" fill="#ef4444" opacity="0.6"/>
  <circle cx="1172" cy="114" r="4" fill="#f59e0b" opacity="0.6"/>
  <circle cx="1186" cy="114" r="4" fill="#22c55e" opacity="0.6"/>
  <!-- Fake code lines in right terminal -->
  <rect x="1160" y="145" width="150" height="2.5" rx="1" fill="#2d3148" opacity="0.5"/>
  <rect x="1160" y="158" width="100" height="2.5" rx="1" fill="#22c55e" opacity="0.3"/>
  <rect x="1160" y="171" width="200" height="2.5" rx="1" fill="#2d3148" opacity="0.5"/>
  <rect x="1160" y="184" width="130" height="2.5" rx="1" fill="#2d3148" opacity="0.5"/>
  <rect x="1160" y="197" width="170" height="2.5" rx="1" fill="#22c55e" opacity="0.3"/>
  <rect x="1160" y="210" width="110" height="2.5" rx="1" fill="#2d3148" opacity="0.5"/>
  <rect x="1160" y="223" width="190" height="2.5" rx="1" fill="#2d3148" opacity="0.5"/>
</svg>
